# xmcd
#
# Track frame offsets: 
#        150
#        19810
#        42716
#        56771
#        71539
#        111382
#        128589
#        143834
#        164679
#
# Disc length: 2340 seconds
#
# Revision: 0
# Processed by: cddbd v1.5.2PL0 Copyright (c) Steve Scherf et al.
# Submitted via: ExactAudioCopyFreeDBPlugin 1.0
#
DISCID=87092209
DTITLE=T-Bone Walker - Every Day I Have The Blues
DYEAR=2014
DGENRE=Blues
TTITLE0=Every Day I Have The Blues
TTITLE1=Vietnam
TTITLE2=Shake It Baby
TTITLE3=Cold, Cold Feeling
TTITLE4=T-Bone Blues Special
TTITLE5=For B.B. King
TTITLE6=Sail On
TTITLE7=Stormy Monday Blues (Live)
TTITLE8=Sail On (Live)
EXTD=
EXTT0=
EXTT1=
EXTT2=
EXTT3=
EXTT4=
EXTT5=
EXTT6=
EXTT7=
EXTT8=
PLAYORDER=
